<?xml version="1.0" encoding="UTF-8" standalone="no"?>
<!-- Created with Inkscape (http://www.inkscape.org/) -->

<svg
   width="120"
   height="120"
   viewBox="0 0 120 120"
   version="1.1"
   id="svg5"
   inkscape:version="1.1.2 (0a00cf5339, 2022-02-04)"
   sodipodi:docname="pdfguitools.svg"
   xmlns:inkscape="http://www.inkscape.org/namespaces/inkscape"
   xmlns:sodipodi="http://sodipodi.sourceforge.net/DTD/sodipodi-0.dtd"
   xmlns:xlink="http://www.w3.org/1999/xlink"
   xmlns="http://www.w3.org/2000/svg"
   xmlns:svg="http://www.w3.org/2000/svg"
   xmlns:rdf="http://www.w3.org/1999/02/22-rdf-syntax-ns#"
   xmlns:cc="http://creativecommons.org/ns#"
   xmlns:dc="http://purl.org/dc/elements/1.1/">
  <title
     id="title21688">Logo PDF GUI Tools</title>
  <sodipodi:namedview
     id="namedview7"
     pagecolor="#ffffff"
     bordercolor="#666666"
     borderopacity="1.0"
     inkscape:pageshadow="2"
     inkscape:pageopacity="0.0"
     inkscape:pagecheckerboard="0"
     inkscape:document-units="px"
     showgrid="false"
     inkscape:zoom="5.25"
     inkscape:cx="33.142857"
     inkscape:cy="60.095238"
     inkscape:window-width="1882"
     inkscape:window-height="1046"
     inkscape:window-x="38"
     inkscape:window-y="0"
     inkscape:window-maximized="1"
     inkscape:current-layer="layer1" />
  <defs
     id="defs2">
    <rect
       x="21.590018"
       y="26.890125"
       width="75.436523"
       height="52.350423"
       id="rect3475" />
    <linearGradient
       id="linearGradient35411"
       inkscape:swatch="solid">
      <stop
         style="stop-color:#ff661a;stop-opacity:1;"
         offset="0"
         id="stop35409" />
    </linearGradient>
    <linearGradient
       id="linearGradient35387"
       inkscape:swatch="solid">
      <stop
         style="stop-color:#ff520c;stop-opacity:1;"
         offset="0"
         id="stop35385" />
    </linearGradient>
    <linearGradient
       inkscape:collect="always"
       id="linearGradient14300">
      <stop
         style="stop-color:#000000;stop-opacity:1;"
         offset="0"
         id="stop14296" />
      <stop
         style="stop-color:#000000;stop-opacity:0;"
         offset="1"
         id="stop14298" />
    </linearGradient>
    <inkscape:perspective
       sodipodi:type="inkscape:persp3d"
       inkscape:vp_x="0 : 60 : 1"
       inkscape:vp_y="0 : 1000 : 0"
       inkscape:vp_z="120 : 60 : 1"
       inkscape:persp3d-origin="60 : 40 : 1"
       id="perspective6616" />
    <linearGradient
       gradientUnits="userSpaceOnUse"
       id="SVGID_1_"
       x1="10.383499"
       x2="17.165054"
       y1="6.8097382"
       y2="13.591293"
       gradientTransform="matrix(1.1081715,0,0,1.0790447,0.99387886,-1.6926069)">
      <stop
         offset="0"
         style="stop-color:#000000;stop-opacity:0.1"
         id="stop38" />
      <stop
         offset="1"
         style="stop-color:#000000;stop-opacity:0"
         id="stop40" />
    </linearGradient>
    <linearGradient
       gradientUnits="userSpaceOnUse"
       id="SVGID_2_"
       x1="17.861504"
       x2="21.758766"
       y1="17.220039"
       y2="21.117302"
       gradientTransform="matrix(1.1081715,0,0,1.0790447,0.99387886,-1.6926069)">
      <stop
         offset="0"
         style="stop-color:#000000;stop-opacity:0.1"
         id="stop57" />
      <stop
         offset="1"
         style="stop-color:#000000;stop-opacity:0"
         id="stop59" />
    </linearGradient>
    <linearGradient
       gradientUnits="userSpaceOnUse"
       id="SVGID_3_"
       x1="5.2450533"
       x2="23.085646"
       y1="10.059656"
       y2="18.37886">
      <stop
         offset="0"
         style="stop-color:#FFFFFF;stop-opacity:0.2"
         id="stop64" />
      <stop
         offset="1"
         style="stop-color:#FFFFFF;stop-opacity:0"
         id="stop66" />
    </linearGradient>
    <linearGradient
       inkscape:collect="always"
       xlink:href="#linearGradient14300"
       id="linearGradient14302"
       x1="5.7825983"
       y1="61.937447"
       x2="127.10248"
       y2="61.937447"
       gradientUnits="userSpaceOnUse" />
    <inkscape:perspective
       sodipodi:type="inkscape:persp3d"
       inkscape:vp_x="0 : 60 : 1"
       inkscape:vp_y="0 : 1000 : 0"
       inkscape:vp_z="120 : 60 : 1"
       inkscape:persp3d-origin="60 : 40 : 1"
       id="perspective6616-0" />
  </defs>
  <g
     inkscape:label="Capa 1"
     inkscape:groupmode="layer"
     id="layer1">
    <rect
       style="fill:#161616;fill-rule:evenodd;stroke-width:1.16292;fill-opacity:1"
       id="rect215"
       width="118.30767"
       height="118.30767"
       x="0.86438006"
       y="0.99745452"
       rx="21.51409" />
    <g
       id="g5946"
       transform="matrix(0.85018011,0,0,0.85018011,13.251487,8.7677046)">
      <rect
         style="fill:#ffffff;fill-opacity:1;fill-rule:evenodd;stroke-width:4.36933"
         id="rect11160"
         width="68.590622"
         height="85.481171"
         x="20.872658"
         y="17.7803"
         ry="3.7702928" />
      <rect
         style="fill:#ff5a5a;fill-opacity:1;fill-rule:evenodd;stroke-width:4.36933"
         id="rect11637"
         width="68.590637"
         height="85.481155"
         x="8.8057804"
         y="5.7134233"
         ry="3.7702928" />
      <text
         xml:space="preserve"
         style="font-style:normal;font-weight:normal;font-size:28.8485px;line-height:1.25;font-family:sans-serif;fill:#ffffff;fill-opacity:1;stroke:none;stroke-width:0.721213"
         x="18.287386"
         y="53.327003"
         id="text16803"><tspan
           sodipodi:role="line"
           id="tspan16801"
           style="fill:#ffffff;stroke-width:0.721213"
           x="18.287386"
           y="53.327003">PDF</tspan></text>
      <g
         id="g20705"
         transform="matrix(1.3243655,0,0,1.3243655,-120.64521,-22.836458)">
        <g
           inkscape:label="Tux"
           id="layer1-6"
           style="display:inline"
           transform="matrix(0.61153939,0,0,0.61153939,107.05354,38.110721)">
          <g
             id="g148"
             transform="matrix(2.7911751,0,0,2.5662855,48.07508,46.830598)">
            <path
               d="m 22.803971,17.766552 c 0.241872,-0.505275 0.353338,-1.213398 0.353338,-2.194444 0,-3.503207 -1.657388,-5.524308 -2.989033,-7.1486708 C 19.362038,7.4397573 18.724623,6.6626133 18.724623,5.860706 l 0.0011,-0.2513205 c 0.0086,-1.4894821 0.02652,-4.5896282 -1.664422,-6.24560347 -0.715875,-0.70074683 -1.647648,-1.05638893 -2.769347,-1.05638893 -2.327809,0 -3.8786,1.10117349 -3.8786,6.4742682 0,1.4789446 -0.6390387,2.6902355 -1.3154128,3.9726548 -0.2965224,0.5621784 -0.6033258,1.1438504 -0.860348,1.7587159 -0.5118801,1.225518 -1.7028398,4.22503 -1.7028398,5.598599 0,0.08746 0.021644,0.173342 0.063309,0.250793 l 3.9218876,7.281971 c 0.08441,0.156483 0.245119,0.258697 0.425305,0.280826 0.02219,0.0026 0.04437,0.0042 0.06656,0.0042 0.157459,0 0.311673,-0.06744 0.417728,-0.182825 0.2462,-0.267121 1.878155,-0.621183 2.862415,-0.621183 h 3.759018 c 0.144473,0 0.282995,-0.05479 0.386345,-0.152795 L 22.98959,18.65644 c 0.219686,-0.208117 0.224014,-0.549533 0.01086,-0.762918 -0.05736,-0.05743 -0.124452,-0.09959 -0.196419,-0.126978 z"
               fill="#1a1a1a"
               id="path2"
               style="stroke-width:1.09351" />
            <path
               d="M 9.0979242,9.0240777 C 9.7742983,7.741658 10.413337,6.5303671 10.413337,5.0514225 c 0,-5.37309473 1.550791,-6.4742682 3.8786,-6.4742682 1.121699,0 2.053472,0.3556421 2.769346,1.05638891 1.478014,1.44739779 1.650421,3.99774729 1.664626,5.61190189 9.46e-4,-1.5831346 -0.09618,-4.34561811 -1.664626,-5.88166307 -0.715874,-0.70074683 -1.647647,-1.05638893 -2.769346,-1.05638893 -2.327809,0 -3.8786,1.10117349 -3.8786,6.4742682 0,1.4789446 -0.6390387,2.6902355 -1.3154128,3.9726548 -0.2965224,0.5621784 -0.6033258,1.1438504 -0.860348,1.7587159 -0.5118801,1.225518 -1.7028398,4.22503 -1.7028398,5.598599 0,0.02457 0.014407,0.04624 0.017788,0.07041 0.093881,-1.441734 1.1950179,-4.225951 1.685051,-5.399242 C 8.4945982,10.167931 8.8014015,9.5862589 9.097924,9.0240809 Z"
               fill="#ffffff"
               opacity="0.2"
               id="path4"
               style="stroke-width:1.09351" />
            <path
               d="m 23.00039,18.163291 c 0.06872,0.06882 0.106528,0.152201 0.130135,0.238873 0.0462,-0.176109 0.0094,-0.368946 -0.130135,-0.508634 -0.03354,-0.03359 -0.07562,-0.05104 -0.11478,-0.07423 -0.02705,0.07258 -0.05026,0.151411 -0.08164,0.217007 0.07196,0.0274 0.139063,0.06954 0.196419,0.126977 z"
               fill="#0099d8"
               id="path6"
               style="stroke-width:1.09351" />
            <path
               d="m 18.724623,6.1304672 c 0,0.8019073 0.637415,1.5790512 1.443653,2.5627312 1.319268,1.6092806 2.953253,3.6125336 2.983554,7.0562046 9.48e-4,-0.06118 0.0054,-0.113872 0.0054,-0.177295 0,-3.503207 -1.657387,-5.524308 -2.989033,-7.1486708 -0.804276,-0.981309 -1.439459,-1.7571358 -1.44257,-2.5569355 0,0.00375 0,0.00889 0,0.012645 z"
               fill="#ffffff"
               opacity="0.2"
               id="path8"
               style="stroke-width:1.09351" />
            <path
               d="m 18.724623,5.860706 c 0,0.00197 0.0011,0.00382 0.0011,0.00579 0.0011,-0.1848681 0.0022,-0.3931163 2.03e-4,-0.6210566 -6.8e-5,0.1236186 4.05e-4,0.2560624 -2.03e-4,0.3639405 z"
               fill="#0099d8"
               id="path10"
               style="stroke-width:1.09351" />
            <g
               id="g14"
               transform="matrix(1.1081715,0,0,1.0790447,0.99387887,-1.6926069)">
              <path
                 d="m 16.129412,16.811764 c -0.01196,-2.434631 -0.342778,-5.173326 -2.266667,-9.1058809 -0.952087,0.6437373 -2.699843,1.1529412 -2.909804,1.1529412 -0.37854,0 -1.2050161,-0.2702007 -1.8122549,-0.8062725 C 8.8910523,8.789002 8.5454713,9.4708868 8.2026368,10.138672 7.9448243,10.640137 7.6782227,11.15918 7.463379,11.688477 6.8590089,13.17334 6.1688233,15.128113 6.0295411,16.166932 c 0.4229736,0.28186 0.7179565,0.891845 1.0437012,1.573303 0.3374023,0.706055 0.7197266,1.506348 1.2124023,1.849609 0.9015503,0.627686 1.3689575,1.523011 1.4914551,2.336548 0.3430783,0.03412 0.7755123,0.06384 1.2668453,0.06384 1.21991,0 2.873782,-0.247742 4.097231,-0.990234 0.06867,-1.322755 0.30098,-3.444463 0.988236,-4.188237 z"
                 fill="#ffffff"
                 id="path12" />
            </g>
            <path
               d="m 23.15183,15.749403 c -0.0136,0.884824 -0.121611,1.54454 -0.347859,2.017149 0.0299,0.0114 0.05377,0.03622 0.08164,0.05275 0.181268,-0.486505 0.271699,-1.123697 0.271699,-1.977436 0,-0.03247 -0.0052,-0.06026 -0.0054,-0.09246 z"
               fill="#0099d8"
               id="path16"
               style="stroke-width:1.09351" />
            <path
               d="m 11.828583,21.96695 c 0.380189,0.03682 0.8594,0.06889 1.403881,0.06889 1.35187,0 3.184641,-0.267323 4.540433,-1.068506 v -0.269761 c -1.355792,0.801183 -3.188563,1.068506 -4.540433,1.068506 -0.544481,0 -1.107399,-0.03695 -1.487589,-0.07376"
               opacity="0.1"
               id="path18"
               style="stroke-width:1.09351" />
            <path
               d="m 18.440769,22.702865 c -0.103348,0.098 -0.241871,0.152795 -0.386345,0.152795 h -3.759017 c -0.98426,0 -2.616216,0.354062 -2.862416,0.621189 -0.106052,0.115385 -0.260269,0.182826 -0.417729,0.182826 -0.02219,0 -0.04437,-0.0016 -0.06656,-0.0042 -0.180186,-0.02213 -0.340893,-0.124349 -0.425304,-0.280832 l -3.9218834,-7.28198 c -0.029964,-0.05572 -0.036862,-0.118547 -0.04552,-0.180389 -0.00419,0.06421 -0.017788,0.140808 -0.017788,0.199357 0,0.08746 0.021644,0.173342 0.063309,0.250793 l 3.9218884,7.281971 c 0.08441,0.156483 0.245118,0.258697 0.425304,0.280826 0.02218,0.0026 0.04437,0.0042 0.06656,0.0042 0.157461,0 0.311674,-0.06744 0.417729,-0.182825 0.2462,-0.267121 1.878156,-0.621183 2.862416,-0.621183 h 3.759017 c 0.144474,0 0.282995,-0.05479 0.386346,-0.152795 l 4.552267,-4.316178 c 0.14887,-0.141006 0.190535,-0.341943 0.140956,-0.524045 -0.02441,0.09293 -0.06507,0.182431 -0.140956,0.254283 z"
               opacity="0.3"
               id="path20"
               style="stroke-width:1.09351" />
            <path
               d="m 24.183774,18.889328 c -0.229426,-0.146472 -0.466968,-0.298212 -0.634708,-0.461545 -0.09794,-0.09537 -0.05303,-0.536361 -0.02922,-0.773455 0.04599,-0.455222 0.09361,-0.925197 -0.220768,-1.262926 -0.118499,-0.127504 -0.33602,-0.279771 -0.695852,-0.279771 -0.296522,0 -0.512962,0.228664 -0.525948,0.516866 -3.39e-4,0.0079 0.003,0.01488 0.003,0.02266 h -2.247472 c 0,-0.298212 -0.247824,-0.539522 -0.554086,-0.539522 -1.643319,0 -1.662257,5.875209 -1.66875,6.003767 -0.03084,0.321922 -0.103348,1.076937 0.392838,1.606976 0.299227,0.319809 0.728319,0.482088 1.275912,0.482088 1.438243,0 2.135719,-0.721822 2.809928,-1.419408 0.113632,-0.11802 0.229968,-0.238148 0.352257,-0.357222 0.280831,-0.273449 0.830046,-0.468394 1.314871,-0.640683 0.795416,-0.282933 1.617887,-0.575351 1.617887,-1.359343 0,-0.778198 -0.6596,-1.1997 -1.189878,-1.538482 z"
               fill="#fdb515"
               id="path22"
               style="stroke-width:1.09351" />
            <path
               d="M 10.175794,19.445711 C 9.6298248,19.075315 9.206144,18.211764 8.8322444,17.449899 8.3376795,16.44251 7.910211,15.572108 7.0888222,15.572108 c -1.0367464,0 -1.263467,0.907283 -1.3846733,1.394644 -0.033548,0.134354 -0.084412,0.336675 -0.089281,0.360385 -0.082247,0.04953 -0.3917559,0.109063 -0.5962915,0.148579 -0.6763742,0.130666 -1.8083542,0.348792 -1.8083542,1.333526 0,0.286622 0.043829,0.530039 0.091987,0.783467 0.085493,0.4489 0.1661174,0.872509 -0.074131,1.779265 -0.011904,0.04373 -0.017856,0.08957 -0.017856,0.13488 0,1.297172 2.069164,1.465246 3.3055762,1.565353 0.2056177,0.01687 0.3766052,0.0295 0.4864482,0.04637 0.1704463,0.02634 0.5275719,0.186515 0.8727934,0.341417 0.7386006,0.33193 1.6579284,0.744475 2.538297,0.744475 0.633086,0 1.139555,-0.39832 1.354913,-1.065346 0.33494,-1.039529 -0.108756,-2.687601 -1.592456,-3.693409 z"
               fill="#fdb515"
               id="path24"
               style="stroke-width:1.09351" />
            <path
               d="m 4.9313237,17.745477 c 0.2115699,-0.03952 0.5318331,-0.09906 0.616921,-0.148579 0.00501,-0.02371 0.057627,-0.226031 0.092325,-0.360385 0.1253997,-0.487361 0.3599662,-1.394643 1.4325605,-1.394643 0.8497965,0 1.2920776,0.870401 1.8037547,1.87779 0.3868184,0.761865 0.8251765,1.625417 1.3900171,1.995812 0.562675,0.368682 0.977834,0.824431 1.264684,1.304087 C 11.258196,20.442496 10.82065,19.882821 10.175794,19.445711 9.6298248,19.075315 9.206144,18.211764 8.8322444,17.449899 8.3376795,16.44251 7.910211,15.572108 7.0888222,15.572108 c -1.0367464,0 -1.263467,0.907283 -1.3846733,1.394644 -0.033548,0.134354 -0.084412,0.336675 -0.089281,0.360385 -0.082247,0.04953 -0.3917559,0.109063 -0.5962915,0.148579 -0.587431,0.113477 -1.516431,0.294327 -1.7512004,0.984734 0.3670682,-0.471226 1.1444927,-0.617961 1.6639477,-0.714973 z"
               fill="#ffffff"
               opacity="0.2"
               id="path26"
               style="stroke-width:1.09351" />
            <path
               d="m 22.603223,15.032586 c -0.106196,0 -0.199665,0.03675 -0.283942,0.08707 L 18.619514,9.2246203 C 18.215516,8.1131723 17.698699,6.9341526 17.000681,5.6136006 16.861077,5.349635 16.527219,5.2447864 16.254504,5.3807208 15.982873,5.517182 15.875735,5.8427922 16.01588,6.1078114 c 2.501502,4.7334656 2.708743,7.6881936 2.709826,10.5133096 -0.0065,0.113278 -0.04599,1.123829 0.550839,1.738695 0.2857,0.293998 0.66934,0.449426 1.110335,0.449426 l 0.195337,0.0011 c 0.06222,5.26e-4 0.124994,0.0011 0.188844,0.0011 0.563284,0 1.172562,-0.04162 1.649271,-0.502114 0.509716,-0.492104 0.736977,-1.336161 0.736977,-2.737128 0,-0.298212 -0.247823,-0.539522 -0.554086,-0.539522 z"
               fill="#1a1a1a"
               id="path28"
               style="stroke-width:1.09351" />
            <path
               d="m 22.420332,18.039475 c -0.476709,0.460491 -1.085987,0.502114 -1.649271,0.502114 -0.06385,0 -0.126617,-5.27e-4 -0.188844,-0.0011 l -0.195337,-0.0011 c -0.440995,0 -0.824635,-0.155429 -1.110335,-0.449426 -0.44688,-0.460359 -0.536974,-1.14227 -0.551313,-1.503577 0,0.01146 4.73e-4,0.02319 4.73e-4,0.03465 -0.0065,0.113279 -0.04599,1.12383 0.55084,1.738695 0.2857,0.293993 0.66934,0.449421 1.110335,0.449421 l 0.195337,0.0011 c 0.06222,5.26e-4 0.124994,0.0011 0.188844,0.0011 0.563284,0 1.172562,-0.04162 1.649271,-0.502114 0.509716,-0.492104 0.736977,-1.336161 0.736977,-2.737128 0,-0.01732 -0.0085,-0.03194 -0.0102,-0.04887 -0.02509,1.259039 -0.246742,2.05278 -0.726832,2.516234 z"
               opacity="0.3"
               id="path30"
               style="stroke-width:1.09351" />
            <path
               d="m 15.400109,1.5893117 c -0.642285,0 -1.108172,0.6712417 -1.108172,1.5964383 0,0.9246696 0.465887,1.5959113 1.108172,1.5959113 0.642285,0 1.108171,-0.6712417 1.108171,-1.5959113 0,-0.9251966 -0.465886,-1.5964383 -1.108171,-1.5964383 z"
               fill="#ffffff"
               id="path32"
               style="stroke-width:1.09351" />
            <ellipse
               cx="15.400109"
               cy="3.5820172"
               rx="0.50263005"
               ry="0.95844555"
               id="ellipse34"
               style="stroke-width:1.09351" />
            <path
               d="m 12.075594,1.5893117 c -0.642285,0 -1.108171,0.6712417 -1.108171,1.5964383 0,0.9246696 0.465886,1.5959113 1.108171,1.5959113 0.642285,0 1.108172,-0.6712417 1.108172,-1.5959113 0,-0.9251966 -0.465887,-1.5964383 -1.108172,-1.5964383 z"
               fill="#ffffff"
               id="path36"
               style="stroke-width:1.09351" />
            <path
               d="m 16.288729,6.6618888 c -1.067251,0.6753908 -2.928971,1.2045732 -3.157112,1.2045732 -0.419487,0 -1.335365,-0.2915607 -2.00829,-0.8700061 l 7.515126,7.3176021 C 18.460026,12.224988 17.89735,9.8485747 16.288729,6.6618888 Z"
               fill="url(#SVGID_1_)"
               id="path43"
               style="fill:url(#SVGID_1_);stroke-width:1.09351" />
            <ellipse
               cx="12.075594"
               cy="3.5629754"
               rx="0.49264395"
               ry="0.93940359"
               id="ellipse45"
               style="stroke-width:1.09351" />
            <path
               d="m 13.846613,3.7131541 c -0.03572,-0.00685 -0.07251,-0.010542 -0.108767,-0.010542 -1.191501,0 -3.324515,1.0880017 -3.324515,2.1580895 0,1.0110775 2.095678,2.1580894 2.770429,2.1580894 0.327365,0 3.8786,-1.2007534 3.8786,-2.1580894 0,-1.4115044 -2.46146,-2.0005531 -3.215753,-2.1475519 z"
               fill="#fdb515"
               id="path47"
               style="stroke-width:1.09351" />
            <path
               d="m 13.846613,3.7131541 c -0.03572,-0.00685 -0.07251,-0.010542 -0.108767,-0.010542 -1.191501,0 -3.324515,1.0880017 -3.324515,2.1580895 0,1.0110775 2.095678,2.1580894 2.770429,2.1580894 0.327365,0 3.8786,-1.2007534 3.8786,-2.1580894 0,-1.4115044 -2.46146,-2.0005531 -3.215753,-2.1475519 z"
               fill="#fdb515"
               id="path49"
               style="stroke-width:1.09351" />
            <path
               d="m 23.755765,21.517392 c -0.484825,0.172289 -1.03404,0.367234 -1.314871,0.640683 -0.122289,0.119074 -0.238625,0.239202 -0.352255,0.357222 -0.674211,0.697586 -1.371687,1.419408 -2.80993,1.419408 -0.547593,0 -0.976685,-0.162279 -1.275912,-0.482093 -0.324863,-0.347015 -0.397911,-0.781952 -0.406501,-1.137132 -0.02395,0.372699 -0.01019,0.961748 0.406501,1.406894 0.299227,0.319813 0.728319,0.482092 1.275912,0.482092 1.438243,0 2.135719,-0.721822 2.809928,-1.419408 0.113632,-0.11802 0.229968,-0.238148 0.352257,-0.357222 0.280831,-0.273449 0.830046,-0.468394 1.314871,-0.640683 0.795416,-0.282933 1.617887,-0.575351 1.617887,-1.359343 0,-0.03913 -0.01914,-0.06738 -0.02238,-0.104722 -0.110795,0.658136 -0.860415,0.932837 -1.595499,1.1943 z"
               opacity="0.1"
               id="path51"
               style="stroke-width:1.09351" />
            <path
               d="m 11.768249,22.869359 c -0.215357,0.667026 -0.721826,1.065346 -1.354912,1.065346 -0.8803689,0 -1.7996967,-0.412545 -2.5382974,-0.744477 C 7.5298183,23.035325 7.1726926,22.875154 7.0022463,22.84881 6.8924031,22.83195 6.7214157,22.819306 6.515798,22.802446 5.3184127,22.7055 3.3569951,22.535319 3.2332863,21.347079 c -0.00244,0.0094 -0.0027,0.01547 -0.00521,0.02489 -0.011904,0.04373 -0.017856,0.08957 -0.017856,0.134881 0,1.297172 2.069164,1.465246 3.3055761,1.565353 0.2056178,0.01687 0.3766052,0.0295 0.4864483,0.04637 0.1704463,0.02634 0.5275719,0.186515 0.8727933,0.341417 0.7386007,0.33193 1.6579285,0.744475 2.538297,0.744475 0.633086,0 1.139555,-0.39832 1.354912,-1.065346 0.08759,-0.271869 0.118569,-0.586349 0.09496,-0.919071 -0.006,0.231035 -0.03179,0.45318 -0.09496,0.64931 z"
               opacity="0.1"
               id="path53"
               style="stroke-width:1.09351" />
            <path
               d="m 13.171659,7.7490342 c -0.621115,0 -2.406134,-0.9508818 -2.756834,-1.8947824 0,0.00217 -0.0015,0.00428 -0.0015,0.00645 0,1.0110775 2.095678,2.1580894 2.770429,2.1580894 0.327365,0 3.8786,-1.2007534 3.8786,-2.1580894 0,-0.020877 -0.01164,-0.037672 -0.01272,-0.05822 -0.525875,0.9228914 -3.572399,1.9465481 -3.877985,1.9465481 z"
               opacity="0.1"
               id="path55"
               style="stroke-width:1.09351" />
            <path
               d="m 24.183774,18.889328 c -0.229426,-0.146472 -0.466968,-0.298212 -0.634708,-0.461545 -0.09794,-0.09537 -0.05303,-0.536361 -0.02922,-0.773455 0.04599,-0.455222 0.09361,-0.925197 -0.220768,-1.262926 -0.04018,-0.04327 -0.104301,-0.08384 -0.173693,-0.121906 -0.06967,0.982363 -0.288947,1.637996 -0.705052,2.03974 -0.476709,0.460491 -1.085987,0.502114 -1.649271,0.502114 -0.06385,0 -0.126617,-5.27e-4 -0.188844,-0.0011 l -0.195335,-0.0011 c -0.440995,0 -0.824635,-0.155428 -1.110335,-0.449426 l 3.790806,3.691171 c 0.221242,-0.09642 0.46122,-0.18309 0.688414,-0.263834 0.795416,-0.282933 1.617887,-0.575351 1.617887,-1.359343 0,-0.778198 -0.6596,-1.1997 -1.189878,-1.538482 z"
               fill="url(#SVGID_2_)"
               id="path62"
               style="fill:url(#SVGID_2_);stroke-width:1.09351" />
            <path
               d="m 24.183774,18.889328 c -0.229426,-0.146472 -0.466968,-0.298212 -0.634708,-0.461545 -0.09794,-0.09537 -0.05303,-0.536361 -0.02922,-0.773455 0.04599,-0.455222 0.09361,-0.925197 -0.220768,-1.262926 -0.03788,-0.0407 -0.104977,-0.07996 -0.164427,-0.11993 0.01488,-0.216415 0.02266,-0.448438 0.02266,-0.699364 0,-3.503207 -1.657388,-5.524308 -2.989033,-7.1486708 C 19.362039,7.4397573 18.724624,6.6626133 18.724624,5.860706 l 0.0011,-0.2513205 c 0.0086,-1.4894821 0.02652,-4.5896282 -1.664422,-6.24560347 -0.715875,-0.70074683 -1.647648,-1.05638893 -2.769347,-1.05638893 -2.327809,0 -3.8786,1.10117349 -3.8786,6.4742682 0,1.4789446 -0.6390386,2.6902355 -1.3154127,3.9726548 C 8.8014029,9.3164945 8.4945995,9.8981665 8.2375773,10.513032 7.7735169,11.624086 6.7605789,14.180954 6.5736968,15.674718 5.9747674,15.920111 5.801548,16.575216 5.70415,16.966752 5.670602,17.101106 5.619738,17.303427 5.614869,17.327137 5.532622,17.376667 5.2231131,17.4362 5.0185775,17.475716 c -0.6763742,0.130666 -1.8083541,0.348792 -1.8083541,1.333526 0,0.286622 0.043829,0.530039 0.091987,0.783467 0.085493,0.4489 0.1661173,0.872509 -0.074131,1.779265 -0.011904,0.04373 -0.017856,0.08957 -0.017856,0.13488 0,1.297172 2.0691639,1.465246 3.3055761,1.565353 0.2056178,0.01687 0.3766052,0.0295 0.4864482,0.04637 0.1704464,0.02634 0.5275719,0.186515 0.8727934,0.341417 0.7386006,0.33193 1.6579284,0.744475 2.5382969,0.744475 0.378905,0 0.70228,-0.156944 0.955176,-0.41452 0.01935,-0.016 0.04396,-0.02476 0.061,-0.04333 0.246201,-0.267128 1.878156,-0.62119 2.862416,-0.62119 h 3.391746 c 0.06107,0.207985 0.149073,0.415312 0.319114,0.596953 0.299227,0.319813 0.728319,0.482092 1.275912,0.482092 1.438243,0 2.135719,-0.721822 2.809929,-1.419408 0.113631,-0.11802 0.229967,-0.238148 0.352256,-0.357222 0.280831,-0.273449 0.830046,-0.468394 1.314871,-0.640683 0.795416,-0.282933 1.617887,-0.575351 1.617887,-1.359343 0,-0.778198 -0.6596,-1.1997 -1.189878,-1.538482 z"
               fill="url(#SVGID_3_)"
               id="path69"
               style="fill:#3c44ff;fill-opacity:0.2;stroke-width:1.09351" />
          </g>
          <text
             xml:space="preserve"
             style="font-style:normal;font-weight:normal;font-size:40px;line-height:1.25;font-family:sans-serif;fill:#000000;fill-opacity:1;stroke:none"
             x="17.360706"
             y="14.328218"
             id="text61656"><tspan
               sodipodi:role="line"
               id="tspan61654"
               x="17.360706"
               y="14.328218" /></text>
        </g>
      </g>
    </g>
  </g>
  <metadata
     id="metadata21686">
    <rdf:RDF>
      <cc:Work
         rdf:about="">
        <dc:title>Logo PDF GUI Tools</dc:title>
        <dc:date>23 August 2023</dc:date>
        <dc:creator>
          <cc:Agent>
            <dc:title>Angel Gual</dc:title>
          </cc:Agent>
        </dc:creator>
        <cc:license
           rdf:resource="http://creativecommons.org/licenses/by-sa/4.0/" />
        <dc:rights>
          <cc:Agent>
            <dc:title>CC BY-SA 4.0</dc:title>
          </cc:Agent>
        </dc:rights>
        <dc:publisher>
          <cc:Agent>
            <dc:title>Angel Gual</dc:title>
          </cc:Agent>
        </dc:publisher>
      </cc:Work>
      <cc:License
         rdf:about="http://creativecommons.org/licenses/by-sa/4.0/">
        <cc:permits
           rdf:resource="http://creativecommons.org/ns#Reproduction" />
        <cc:permits
           rdf:resource="http://creativecommons.org/ns#Distribution" />
        <cc:requires
           rdf:resource="http://creativecommons.org/ns#Notice" />
        <cc:requires
           rdf:resource="http://creativecommons.org/ns#Attribution" />
        <cc:permits
           rdf:resource="http://creativecommons.org/ns#DerivativeWorks" />
        <cc:requires
           rdf:resource="http://creativecommons.org/ns#ShareAlike" />
      </cc:License>
    </rdf:RDF>
  </metadata>
</svg>
